Coordinates
version=1
nRows=26
nColumns=24
inDegrees=yes

Units are S.I. units (second, meters, Newtons, ...)
Angles are in degrees.

endheader
time	pelvis_tilt	pelvis_list	pelvis_rotation	pelvis_tx	pelvis_ty	pelvis_tz	hip_flexion_r	hip_adduction_r	hip_rotation_r	knee_angle_r	ankle_angle_r	subtalar_angle_r	mtp_angle_r	hip_flexion_l	hip_adduction_l	hip_rotation_l	knee_angle_l	ankle_angle_l	subtalar_angle_l	mtp_angle_l	lumbar_extension	lumbar_bending	lumbar_rotation
      1.61500000	     19.55021296	    -10.17826500	      7.16678703	      0.40300477	      0.96904907	      0.01076304	    -14.69087396	     15.25128349	    -11.30292749	     -6.95169341	      6.85482997	      4.45017982	      6.26646529	     -7.90160870	    -16.79845504	     -5.04540241	    -63.74041010	     -3.21660551	     -4.75154805	     20.03662317	    -25.76722039	     10.89147107	     -0.63207947
      1.62000000	     19.44188258	    -10.03205678	      7.21800546	      0.40830974	      0.96934039	      0.01077112	    -15.09151438	     15.17757891	    -11.11073015	     -6.66774056	      7.02805337	      4.29470435	      6.26182098	     -6.89220546	    -16.60005913	     -4.87280348	    -63.78857036	     -1.92243996	     -5.28666187	     20.02619643	    -25.70037223	     10.72675695	     -0.73831158
      1.62500000	     19.28956550	     -9.87619593	      7.30608723	      0.41358631	      0.96949858	      0.01074265	    -15.43940732	     15.09946765	    -10.91011108	     -6.38252746	      7.22106247	      4.10083996	      6.26020979	     -5.83002754	    -16.39437083	     -4.68051210	    -63.78262560	     -0.55634787	     -5.60645527	     19.92686962	    -25.59354450	     10.56479428	     -0.85039135
      1.63000000	     19.16243524	     -9.73574998	      7.33634807	      0.41884772	      0.96967191	      0.01083023	    -15.81528629	     15.03358837	    -10.46919131	     -6.10910856	      7.37917461	      3.69319006	      6.16371829	     -4.86346942	    -16.21414703	     -4.61297406	    -63.65124962	      1.00935872	     -5.66414569	     18.97145960	    -25.52610021	     10.39636473	     -0.91461223
      1.63500000	     19.10169001	     -9.58500980	      7.39764406	      0.42390052	      0.96991142	      0.01069968	    -16.20965561	     14.93923510	    -10.35964833	     -5.91231528	      7.60598902	      3.65099900	      6.16730556	     -3.94850089	    -15.97756548	     -4.45616401	    -63.46144565	      2.34805322	     -5.73190238	     19.09899023	    -25.55440955	     10.25020579	     -1.01838574
      1.64000000	     19.01613605	     -9.47507557	      7.32158296	      0.42905015	      0.97016757	      0.01069847	    -16.62357508	     14.83986849	    -10.28538748	     -5.66550789	      7.78015590	      3.76670952	      6.17143380	     -3.09903562	    -15.77201772	     -4.50866667	    -63.15676011	      3.74206621	     -5.66802568	     19.22738670	    -25.54885494	     10.09197534	     -0.92781925
      1.64500000	     18.93221037	     -9.38791095	      7.29292798	      0.43416991	      0.97035170	      0.01075921	    -17.02467569	     14.78255364	    -10.02681831	     -5.42366277	      7.93522954	      3.74106582	      6.15977900	     -2.24358828	    -15.58924409	     -4.45056664	    -62.77141424	      5.07768535	     -5.46778327	     19.38951006	    -25.53928972	      9.96442272	     -0.86959868
      1.65000000	     18.92120935	     -9.28557019	      7.25904316	      0.43956034	      0.97060708	      0.01077889	    -17.56653303	     14.71891240	     -9.68104048	     -5.09875310	      8.04540418	      3.61588890	      6.13030590	     -1.52706308	    -15.39857171	     -4.44085644	    -62.29990333	      6.38352151	     -5.07079930	     19.55150888	    -25.59551857	      9.82251766	     -0.80989533
      1.65500000	     18.96423485	     -9.13550826	      7.16411461	      0.44492299	      0.97096847	      0.01083737	    -18.16222648	     14.58564207	     -9.31097845	     -4.80463113	      8.17436853	      3.50697232	      6.11122884	     -0.97117841	    -15.17023779	     -4.59435668	    -61.65169266	      7.76751095	     -4.71624918	     19.77336738	    -25.71662498	      9.60915878	     -0.74068632
      1.66000000	     18.98731042	     -8.99987829	      7.05520221	      0.45021655	      0.97124420	      0.01093267	    -18.71288457	     14.45716182	     -9.01776739	     -4.54169728	      8.32198576	      3.45987793	      6.10305330	     -0.41605700	    -14.93649122	     -4.69604500	    -60.92273910	      9.00117463	     -4.26204982	     19.92326219	    -25.82638198	      9.41162360	     -0.58732608
      1.66500000	     19.02176439	     -8.81435110	      6.95503549	      0.45555575	      0.97154110	      0.01105370	    -19.32882328	     14.28700922	     -8.63921594	     -4.20454209	      8.46640869	      3.32116470	      6.06394407	      0.10077067	    -14.60965615	     -4.72256854	    -60.09281660	     10.20428450	     -3.75665401	     20.04074051	    -25.94830335	      9.15762934	     -0.46404698
      1.67000000	     19.00771664	     -8.72875565	      6.89529815	      0.46064446	      0.97164478	      0.01126105	    -19.86422045	     14.23100666	     -8.06859780	     -3.85452689	      8.51981221	      2.98113934	      5.99453794	      0.72131298	    -14.45311616	     -4.81429310	    -59.28163868	     11.29893583	     -3.18789514	     20.16794367	    -26.02267835	      9.00498493	     -0.36250889
      1.67500000	     18.94273225	     -8.68478389	      6.77182285	      0.46565101	      0.97162999	      0.01153620	    -20.29488640	     14.18731655	     -7.48137189	     -3.58593841	      8.58699768	      2.53986738	      5.94934099	      1.35221460	    -14.35472969	     -5.03237033	    -58.38216872	     12.31347249	     -2.62442734	     20.40671499	    -26.06821239	      8.86417075	     -0.21791292
      1.68000000	     18.87404776	     -8.54834596	      6.66861477	      0.47086239	      0.97165839	      0.01171953	    -20.75583929	     14.04920306	     -7.18409869	     -3.28287613	      8.69295174	      2.43738167	      5.95731576	      1.93541145	    -14.12874851	     -5.21958150	    -57.32285229	     13.10671291	     -2.14864160	     20.60231123	    -26.08044004	      8.64724556	     -0.13946033
      1.68500000	     18.93148522	     -8.45166397	      6.53636897	      0.47615524	      0.97184483	      0.01192316	    -21.38074555	     13.94170176	     -6.83437970	     -2.94944197	      8.73359236	      2.43861966	      5.98101886	      2.32174779	    -13.95247997	     -5.41040623	    -56.19039318	     13.70791084	     -1.60245158	     20.76706768	    -26.22458544	      8.46704518	      0.08406209
      1.69000000	     19.01166225	     -8.28901588	      6.35897708	      0.48148932	      0.97203451	      0.01229911	    -22.00661987	     13.76851234	     -6.56770275	     -2.68456655	      8.90488705	      2.40672262	      5.99277303	      2.60530971	    -13.72834009	     -5.73896499	    -54.93026164	     14.07538082	     -1.23622033	     20.93751889	    -26.39831645	      8.17457428	      0.26458649
      1.69500000	     19.04326381	     -8.10285975	      6.12091672	      0.48676852	      0.97222334	      0.01259573	    -22.62302676	     13.52069054	     -6.07725644	     -2.37629492	      9.04830335	      2.30706387	      5.97533975	      2.85957830	    -13.43831208	     -6.10758676	    -53.49815628	     14.27054781	     -1.20605830	     20.95429963	    -26.53437061	      7.85585655	      0.48267135
      1.70000000	     19.12976495	     -7.95244964	      5.89498867	      0.49197525	      0.97241994	      0.01293917	    -23.29683049	     13.32388836	     -5.60518677	     -2.02489343	      9.08661884	      2.12985487	      5.93816378	      3.03134508	    -13.21537022	     -6.50852064	    -51.96648303	     14.63803760	     -0.89869017	     21.10027419	    -26.73080388	      7.57445650	      0.70112591
      1.70500000	     19.16260977	     -7.85501682	      5.73116095	      0.49709838	      0.97247744	      0.01331434	    -23.79999838	     13.20776347	     -5.34578090	     -1.80685197	      9.12984036	      1.99673305	      5.98193024	      3.28355331	    -13.05596187	     -6.85218597	    -50.41992507	     15.11771112	     -0.36459116	     21.50307319	    -26.87387961	      7.35385517	      0.87106006
      1.71000000	     19.15745274	     -7.73452551	      5.53089950	      0.50236606	      0.97241224	      0.01362566	    -24.29972502	     13.04515273	     -5.03112695	     -1.55900556	      9.22630756	      1.82624113	      6.05158383	      3.52253200	    -12.85876048	     -7.22667469	    -48.81243474	     15.28496625	     -0.13888349	     21.76684686	    -26.94865427	      7.10679142	      1.05632876
      1.71500000	     19.28124615	     -7.49938653	      5.29444385	      0.50765337	      0.97261017	      0.01390152	    -24.94737020	     12.74762915	     -4.77890583	     -1.34237859	      9.37338889	      1.75150147	      6.11942517	      3.49689524	    -12.53171506	     -7.71334997	    -46.99044074	     15.37084931	     -0.10842547	     21.88389672	    -27.17582284	      6.73136786	      1.27219518
      1.72000000	     19.44250867	     -7.22698933	      5.05075860	      0.51302698	      0.97291580	      0.01416330	    -25.69581291	     12.40120629	     -4.52604817	     -1.01007586	      9.39683170	      1.75817161	      6.24862557	      3.32530579	    -12.15436062	     -8.23994514	    -44.95416647	     15.29536432	     -0.21189133	     22.11454254	    -27.43425750	      6.32242830	      1.42761390
      1.72500000	     19.60645626	     -6.91354900	      4.78184909	      0.51844312	      0.97313964	      0.01442772	    -26.39998679	     12.00977070	     -4.48804180	     -0.79002466	      9.64552980	      2.01221893	      6.33260319	      3.10984631	    -11.74515519	     -8.85213956	    -42.85285158	     15.05291417	     -0.29655191	     22.51505343	    -27.69267177	      5.84274320	      1.56204957
      1.73000000	     19.86987708	     -6.57517335	      4.48690194	      0.52401092	      0.97351856	      0.01472515	    -27.23616895	     11.58166380	     -4.49386675	     -0.54033614	      9.85687387	      2.30837248	      6.33267030	      2.66380143	    -11.30555336	     -9.62844132	    -40.55979350	     14.94140156	     -0.48122865	     22.73690617	    -28.02970386	      5.33954814	      1.70338726
      1.73500000	     20.18812526	     -6.23111236	      4.13535882	      0.52960947	      0.97396085	      0.01502759	    -28.07826959	     11.09935866	     -4.56033063	     -0.39473113	     10.09147153	      2.73065329	      6.35125941	      2.10070537	    -10.86252865	    -10.50354077	    -38.18433418	     14.64871341	     -0.70205323	     22.95771711	    -28.43901850	      4.81013978	      1.92768808
      1.74000000	     20.50317474	     -5.85689526	      3.82922353	      0.53531613	      0.97436524	      0.01519700	    -28.99662081	     10.60417805	     -4.56982503	     -0.08901880	     10.23494587	      3.03869837	      6.34046337	      1.46734497	    -10.34815540	    -11.35633547	    -35.64418298	     14.14685594	     -0.91465136	     23.18135981	    -28.81721538	      4.27881751	      2.07260287
